<svg width="154" height="40" viewBox="0 0 154 40" fill="none" xmlns="http://www.w3.org/2000/svg">
<path d="M1.74414 15L20.4941 5L39.2441 15L20.4941 25L1.74414 15Z" stroke="#FF6636" stroke-width="3" stroke-linecap="round" stroke-linejoin="round"/>
<path d="M29.8691 37.5V20L20.4941 15" stroke="#FF6636" stroke-width="3" stroke-linecap="round" stroke-linejoin="round"/>
<path d="M34.8691 17.3333V25.8521C34.8697 26.1218 34.7825 26.3843 34.6208 26.6001C33.5682 28.0008 29.1274 33.1249 20.4941 33.1249C11.8609 33.1249 7.42011 28.0008 6.3675 26.6001C6.20579 26.3843 6.11863 26.1218 6.11914 25.8521V17.3333" stroke="#FF6636" stroke-width="3" stroke-linecap="round" stroke-linejoin="round"/>
<path d="M50.7896 32V8.72727H65.926V12.2614H55.0055V18.5795H65.1419V22.1136H55.0055V28.4659H66.0169V32H50.7896ZM79.6648 20.6136V24H69.1876V20.6136H79.6648ZM91.7474 14.5455V17.7273H81.7133V14.5455H91.7474ZM84.1906 10.3636H88.3043V26.75C88.3043 27.303 88.3876 27.7273 88.5543 28.0227C88.7285 28.3106 88.9558 28.5076 89.2361 28.6136C89.5164 28.7197 89.827 28.7727 90.1679 28.7727C90.4255 28.7727 90.6603 28.7538 90.8724 28.7159C91.0921 28.678 91.2588 28.6439 91.3724 28.6136L92.0656 31.8295C91.8459 31.9053 91.5315 31.9886 91.1224 32.0795C90.7209 32.1705 90.2285 32.2235 89.6452 32.2386C88.6149 32.2689 87.6868 32.1136 86.8611 31.7727C86.0353 31.4242 85.38 30.8864 84.8952 30.1591C84.4179 29.4318 84.183 28.5227 84.1906 27.4318V10.3636ZM105.353 24.6591V14.5455H109.466V32H105.478V28.8977H105.296C104.902 29.875 104.254 30.6742 103.353 31.2955C102.459 31.9167 101.357 32.2273 100.046 32.2273C98.902 32.2273 97.8907 31.9735 97.0119 31.4659C96.1407 30.9508 95.4588 30.2045 94.9664 29.2273C94.474 28.2424 94.2278 27.053 94.2278 25.6591V14.5455H98.3414V25.0227C98.3414 26.1288 98.6444 27.0076 99.2505 27.6591C99.8566 28.3106 100.652 28.6364 101.637 28.6364C102.243 28.6364 102.83 28.4886 103.398 28.1932C103.966 27.8977 104.432 27.4583 104.796 26.875C105.167 26.2841 105.353 25.5455 105.353 24.6591ZM121.452 14.5455V17.7273H111.418V14.5455H121.452ZM113.896 10.3636H118.009V26.75C118.009 27.303 118.093 27.7273 118.259 28.0227C118.433 28.3106 118.661 28.5076 118.941 28.6136C119.221 28.7197 119.532 28.7727 119.873 28.7727C120.13 28.7727 120.365 28.7538 120.577 28.7159C120.797 28.678 120.964 28.6439 121.077 28.6136L121.771 31.8295C121.551 31.9053 121.237 31.9886 120.827 32.0795C120.426 32.1705 119.933 32.2235 119.35 32.2386C118.32 32.2689 117.392 32.1136 116.566 31.7727C115.74 31.4242 115.085 30.8864 114.6 30.1591C114.123 29.4318 113.888 28.5227 113.896 27.4318V10.3636ZM131.359 32.3409C129.654 32.3409 128.177 31.9659 126.927 31.2159C125.677 30.4659 124.707 29.4167 124.018 28.0682C123.336 26.7197 122.995 25.1439 122.995 23.3409C122.995 21.5379 123.336 19.9583 124.018 18.6023C124.707 17.2462 125.677 16.1932 126.927 15.4432C128.177 14.6932 129.654 14.3182 131.359 14.3182C133.063 14.3182 134.541 14.6932 135.791 15.4432C137.041 16.1932 138.007 17.2462 138.688 18.6023C139.378 19.9583 139.723 21.5379 139.723 23.3409C139.723 25.1439 139.378 26.7197 138.688 28.0682C138.007 29.4167 137.041 30.4659 135.791 31.2159C134.541 31.9659 133.063 32.3409 131.359 32.3409ZM131.382 29.0455C132.306 29.0455 133.079 28.7917 133.7 28.2841C134.321 27.7689 134.783 27.0795 135.086 26.2159C135.397 25.3523 135.552 24.3902 135.552 23.3295C135.552 22.2614 135.397 21.2955 135.086 20.4318C134.783 19.5606 134.321 18.8674 133.7 18.3523C133.079 17.8371 132.306 17.5795 131.382 17.5795C130.435 17.5795 129.647 17.8371 129.018 18.3523C128.397 18.8674 127.931 19.5606 127.62 20.4318C127.317 21.2955 127.166 22.2614 127.166 23.3295C127.166 24.3902 127.317 25.3523 127.62 26.2159C127.931 27.0795 128.397 27.7689 129.018 28.2841C129.647 28.7917 130.435 29.0455 131.382 29.0455ZM142.254 32V14.5455H146.243V17.4545H146.424C146.743 16.447 147.288 15.6705 148.061 15.125C148.841 14.572 149.731 14.2955 150.731 14.2955C150.959 14.2955 151.212 14.3068 151.493 14.3295C151.781 14.3447 152.019 14.3712 152.209 14.4091V18.1932C152.034 18.1326 151.758 18.0795 151.379 18.0341C151.008 17.9811 150.648 17.9545 150.299 17.9545C149.549 17.9545 148.875 18.1174 148.277 18.4432C147.686 18.7614 147.22 19.2045 146.879 19.7727C146.538 20.3409 146.368 20.9962 146.368 21.7386V32H142.254Z" fill="#1D2026"/>
</svg>
