<svg width="52" height="52" viewBox="0 0 52 52" fill="none" xmlns="http://www.w3.org/2000/svg">
<rect width="52" height="52" rx="26" fill="#FFF0F0"/>
<path d="M25.9989 35.2386C29.7319 35.2386 32.4506 33.0994 32.4421 30.1506C32.4506 27.9688 31.087 26.4006 28.641 26.0511V25.9148C30.533 25.5057 31.8029 24.0994 31.7944 22.1392C31.8029 19.4801 29.5359 17.3068 26.0501 17.3068C22.658 17.3068 20.033 19.3267 19.9648 22.25H23.0075C23.0586 20.7841 24.4222 19.8722 26.033 19.8722C27.6609 19.8722 28.7433 20.8608 28.7347 22.3267C28.7433 23.8523 27.4819 24.8665 25.6751 24.8665H24.1325V27.304H25.6751C27.8825 27.304 29.195 28.4119 29.1864 29.9886C29.195 31.5312 27.8569 32.5881 25.9904 32.5881C24.2347 32.5881 22.8796 31.6761 22.8029 30.2528H19.5984C19.6836 33.2017 22.3171 35.2386 25.9989 35.2386Z" fill="#E34444"/>
</svg>
